<?xml version="1.0" encoding="UTF-8" standalone="no"?>
<svg height="60" width="60" version="1.1">
  <g transform="translate(153,20)">
    <circle
       r="13.498"
       cy="10"
       cx="-122.677"
       id="circle5328" />
    <path
       d="m -93,6.992 -6.753,0 c -1.346,-10.369 -9.545,-18.568 -19.917,-19.917 l 0,-7.075 -6.013,0 0,7.074 c -10.369,1.35 -18.568,9.549 -19.917,19.917 l -7.4,0 0,6.013 7.399,0 c 1.35,10.372 9.549,18.568 19.917,19.917 l 0,7.079 6.013,0 0,-7.078 c 10.372,-1.349 18.571,-9.545 19.917,-19.917 l 6.754,0 0,-6.013 z m -29.677,21.29 c -10.081,0 -18.28,-8.203 -18.28,-18.284 0,-10.081 8.199,-18.28 18.28,-18.28 10.081,0 18.283,8.199 18.283,18.28 0,10.081 -8.202,18.284 -18.283,18.284 z"
       />
  </g>
</svg>
